<svg xmlns="http://www.w3.org/2000/svg" viewBox="0 0 800 600" width="800" height="600"><defs><filter id="sh" x="-20%" y="-20%" width="140%" height="140%"><feDropShadow dx="0" dy="10" stdDeviation="12" flood-color="#3b2416" flood-opacity="0.22"/></filter><radialGradient id="r1" cx="0.4" cy="0.35" r="0.75"><stop offset="0" stop-color="#3a3a3a"/><stop offset="1" stop-color="#151515"/></radialGradient><radialGradient id="r2" cx="0.4" cy="0.35" r="0.75"><stop offset="0" stop-color="#f7d36a"/><stop offset="1" stop-color="#d99a22"/></radialGradient><radialGradient id="r3" cx="0.4" cy="0.35" r="0.75"><stop offset="0" stop-color="#f5f7f9"/><stop offset="1" stop-color="#aab3bb"/></radialGradient><radialGradient id="r4" cx="0.4" cy="0.35" r="0.75"><stop offset="0" stop-color="#f7f9fa"/><stop offset="0.75" stop-color="#c9d0d6"/><stop offset="1" stop-color="#98a2ab"/></radialGradient><radialGradient id="r5" cx="0.38" cy="0.35" r="0.8"><stop offset="0" stop-color="#f2b705"/><stop offset="1" stop-color="#f2b705"/></radialGradient><radialGradient id="r6" cx="0.4" cy="0.35" r="0.75"><stop offset="0" stop-color="#f7f9fa"/><stop offset="0.75" stop-color="#c9d0d6"/><stop offset="1" stop-color="#98a2ab"/></radialGradient><radialGradient id="r7" cx="0.38" cy="0.35" r="0.8"><stop offset="0" stop-color="#b3261e"/><stop offset="1" stop-color="#b3261e"/></radialGradient><radialGradient id="r8" cx="0.4" cy="0.35" r="0.75"><stop offset="0" stop-color="#f7f9fa"/><stop offset="0.75" stop-color="#c9d0d6"/><stop offset="1" stop-color="#98a2ab"/></radialGradient><radialGradient id="r9" cx="0.38" cy="0.35" r="0.8"><stop offset="0" stop-color="#5a3d1e"/><stop offset="1" stop-color="#5a3d1e"/></radialGradient><radialGradient id="r10" cx="0.4" cy="0.35" r="0.75"><stop offset="0" stop-color="#f7f9fa"/><stop offset="0.75" stop-color="#c9d0d6"/><stop offset="1" stop-color="#98a2ab"/></radialGradient><radialGradient id="r11" cx="0.38" cy="0.35" r="0.8"><stop offset="0" stop-color="#e8e0cc"/><stop offset="1" stop-color="#e8e0cc"/></radialGradient><radialGradient id="r12" cx="0.4" cy="0.35" r="0.75"><stop offset="0" stop-color="#9c2a5a"/><stop offset="1" stop-color="#5c0f30"/></radialGradient></defs><rect width="800" height="600" fill="#efe0cb"/><circle cx="536.6" cy="267.3" r="1.3" fill="#000" opacity="0.035"/><circle cx="657.4" cy="345.4" r="2.5" fill="#000" opacity="0.035"/><circle cx="429.1" cy="373.8" r="1.7" fill="#000" opacity="0.035"/><circle cx="486.6" cy="551.3" r="2.6" fill="#000" opacity="0.035"/><circle cx="528.8" cy="258.1" r="1.1" fill="#000" opacity="0.035"/><circle cx="672.2" cy="234.9" r="1.6" fill="#000" opacity="0.035"/><circle cx="45.7" cy="20.5" r="1.6" fill="#000" opacity="0.035"/><circle cx="779.8" cy="444.3" r="2.1" fill="#000" opacity="0.035"/><circle cx="534.8" cy="163.7" r="1.3" fill="#000" opacity="0.035"/><circle cx="481.9" cy="38.1" r="1.9" fill="#000" opacity="0.035"/><circle cx="411.6" cy="325.5" r="1.2" fill="#000" opacity="0.035"/><circle cx="54.1" cy="283.9" r="1.2" fill="#000" opacity="0.035"/><circle cx="513.2" cy="185.7" r="2" fill="#000" opacity="0.035"/><circle cx="600.2" cy="363.9" r="1.9" fill="#000" opacity="0.035"/><circle cx="157.9" cy="208.3" r="2.6" fill="#000" opacity="0.035"/><circle cx="214.9" cy="170.6" r="1.8" fill="#000" opacity="0.035"/><circle cx="436.8" cy="474.4" r="1.5" fill="#000" opacity="0.035"/><circle cx="770.3" cy="13.3" r="2.3" fill="#000" opacity="0.035"/><circle cx="455.8" cy="540.7" r="1.2" fill="#000" opacity="0.035"/><circle cx="551.4" cy="568.3" r="2.1" fill="#000" opacity="0.035"/><circle cx="89.9" cy="552.6" r="2.6" fill="#000" opacity="0.035"/><circle cx="88.6" cy="496.4" r="1.1" fill="#000" opacity="0.035"/><circle cx="65" cy="477.2" r="2.2" fill="#000" opacity="0.035"/><circle cx="765.7" cy="379.2" r="1.8" fill="#000" opacity="0.035"/><circle cx="217.7" cy="343.7" r="2.6" fill="#000" opacity="0.035"/><circle cx="517.3" cy="525.3" r="1.3" fill="#000" opacity="0.035"/><circle cx="588" cy="439.1" r="1.1" fill="#000" opacity="0.035"/><circle cx="656.2" cy="105.6" r="1.3" fill="#000" opacity="0.035"/><circle cx="49" cy="397.6" r="1.2" fill="#000" opacity="0.035"/><circle cx="780.6" cy="0" r="2.3" fill="#000" opacity="0.035"/><circle cx="607.3" cy="341.6" r="1.9" fill="#000" opacity="0.035"/><circle cx="638.4" cy="381.8" r="1.2" fill="#000" opacity="0.035"/><circle cx="637.5" cy="212.3" r="1.9" fill="#000" opacity="0.035"/><circle cx="409.9" cy="542.4" r="1.7" fill="#000" opacity="0.035"/><circle cx="682.7" cy="49.1" r="1.5" fill="#000" opacity="0.035"/><circle cx="536.5" cy="367.2" r="2.3" fill="#000" opacity="0.035"/><circle cx="166.3" cy="482.5" r="2.3" fill="#000" opacity="0.035"/><circle cx="114.3" cy="83.9" r="1.9" fill="#000" opacity="0.035"/><circle cx="780.5" cy="368.2" r="1.7" fill="#000" opacity="0.035"/><circle cx="405.5" cy="485.7" r="1.8" fill="#000" opacity="0.035"/><circle cx="429.4" cy="356" r="2.5" fill="#000" opacity="0.035"/><circle cx="640.3" cy="503.5" r="1.4" fill="#000" opacity="0.035"/><circle cx="480.1" cy="493.9" r="2.1" fill="#000" opacity="0.035"/><circle cx="761.5" cy="549.1" r="1.2" fill="#000" opacity="0.035"/><circle cx="406.6" cy="214.7" r="1.3" fill="#000" opacity="0.035"/><circle cx="400.6" cy="590.2" r="2.2" fill="#000" opacity="0.035"/><circle cx="79.3" cy="148.6" r="1.6" fill="#000" opacity="0.035"/><circle cx="708.1" cy="275.7" r="1.3" fill="#000" opacity="0.035"/><circle cx="440.2" cy="148.3" r="1.1" fill="#000" opacity="0.035"/><circle cx="474.1" cy="594.5" r="2.2" fill="#000" opacity="0.035"/><circle cx="589" cy="91.6" r="1.9" fill="#000" opacity="0.035"/><circle cx="509.5" cy="455.5" r="1.7" fill="#000" opacity="0.035"/><circle cx="42.6" cy="556.6" r="1.4" fill="#000" opacity="0.035"/><circle cx="590.7" cy="278.5" r="2.2" fill="#000" opacity="0.035"/><circle cx="270.2" cy="55.5" r="1.7" fill="#000" opacity="0.035"/><circle cx="384" cy="475.5" r="1.6" fill="#000" opacity="0.035"/><circle cx="533.2" cy="225.8" r="2.2" fill="#000" opacity="0.035"/><circle cx="139.4" cy="528" r="2.5" fill="#000" opacity="0.035"/><circle cx="19" cy="515" r="2.2" fill="#000" opacity="0.035"/><circle cx="554.4" cy="63.5" r="2.2" fill="#000" opacity="0.035"/><circle cx="617.3" cy="375.8" r="2.5" fill="#000" opacity="0.035"/><circle cx="757.6" cy="380.2" r="2.5" fill="#000" opacity="0.035"/><circle cx="115" cy="179" r="1.8" fill="#000" opacity="0.035"/><circle cx="418.1" cy="571.7" r="2" fill="#000" opacity="0.035"/><circle cx="497" cy="372.8" r="2.5" fill="#000" opacity="0.035"/><circle cx="320.3" cy="443.7" r="2" fill="#000" opacity="0.035"/><circle cx="321.9" cy="203.4" r="1.2" fill="#000" opacity="0.035"/><circle cx="8.7" cy="201.6" r="1.5" fill="#000" opacity="0.035"/><circle cx="65" cy="291.3" r="1.6" fill="#000" opacity="0.035"/><circle cx="740.8" cy="468.3" r="2.1" fill="#000" opacity="0.035"/><circle cx="677.6" cy="164.8" r="1.2" fill="#000" opacity="0.035"/><circle cx="487.8" cy="136.5" r="2.6" fill="#000" opacity="0.035"/><circle cx="340" cy="531.7" r="1.4" fill="#000" opacity="0.035"/><circle cx="75" cy="376.2" r="2.1" fill="#000" opacity="0.035"/><circle cx="204.8" cy="556.1" r="2.6" fill="#000" opacity="0.035"/><circle cx="549.8" cy="588.8" r="2.6" fill="#000" opacity="0.035"/><circle cx="118.5" cy="438.2" r="2.2" fill="#000" opacity="0.035"/><circle cx="585.5" cy="203.7" r="1.9" fill="#000" opacity="0.035"/><circle cx="470.5" cy="510" r="1.1" fill="#000" opacity="0.035"/><circle cx="300.2" cy="188.9" r="2.3" fill="#000" opacity="0.035"/><circle cx="93.3" cy="37" r="1.2" fill="#000" opacity="0.035"/><circle cx="92.8" cy="261.1" r="2.4" fill="#000" opacity="0.035"/><circle cx="284.1" cy="60.7" r="2.1" fill="#000" opacity="0.035"/><circle cx="266.1" cy="342.7" r="2.2" fill="#000" opacity="0.035"/><circle cx="364.7" cy="440" r="2" fill="#000" opacity="0.035"/><circle cx="681.4" cy="457.4" r="2.4" fill="#000" opacity="0.035"/><circle cx="597" cy="169.3" r="1.8" fill="#000" opacity="0.035"/><circle cx="617.8" cy="470.8" r="2.2" fill="#000" opacity="0.035"/><circle cx="674.5" cy="494.7" r="1.9" fill="#000" opacity="0.035"/><circle cx="512.4" cy="26.3" r="1.8" fill="#000" opacity="0.035"/><circle cx="581.4" cy="548.1" r="2.4" fill="#000" opacity="0.035"/><circle cx="351.4" cy="137.8" r="2.4" fill="#000" opacity="0.035"/><circle cx="525.8" cy="115" r="1.1" fill="#000" opacity="0.035"/><circle cx="702.4" cy="346" r="1.2" fill="#000" opacity="0.035"/><circle cx="791.9" cy="352.3" r="2.2" fill="#000" opacity="0.035"/><circle cx="645.1" cy="153.5" r="1.8" fill="#000" opacity="0.035"/><circle cx="137.8" cy="367.5" r="1.7" fill="#000" opacity="0.035"/><circle cx="632" cy="69.5" r="1.3" fill="#000" opacity="0.035"/><circle cx="309.6" cy="0.9" r="1.7" fill="#000" opacity="0.035"/><circle cx="770.1" cy="519.4" r="1.3" fill="#000" opacity="0.035"/><circle cx="665.4" cy="135.1" r="1.4" fill="#000" opacity="0.035"/><circle cx="510.1" cy="176.5" r="1.3" fill="#000" opacity="0.035"/><circle cx="68.5" cy="106.1" r="1.3" fill="#000" opacity="0.035"/><circle cx="729.5" cy="25.2" r="1.9" fill="#000" opacity="0.035"/><circle cx="169.8" cy="432.2" r="1" fill="#000" opacity="0.035"/><circle cx="297.1" cy="442.6" r="1" fill="#000" opacity="0.035"/><circle cx="329.1" cy="195.6" r="1.8" fill="#000" opacity="0.035"/><circle cx="502.9" cy="48" r="2.4" fill="#000" opacity="0.035"/><circle cx="216" cy="463.2" r="1.2" fill="#000" opacity="0.035"/><circle cx="75.1" cy="116.2" r="1.1" fill="#000" opacity="0.035"/><circle cx="198.3" cy="83.7" r="1.1" fill="#000" opacity="0.035"/><circle cx="681.5" cy="317.1" r="1.8" fill="#000" opacity="0.035"/><circle cx="406.6" cy="486.3" r="1.1" fill="#000" opacity="0.035"/><circle cx="36.3" cy="399.7" r="1" fill="#000" opacity="0.035"/><circle cx="404.6" cy="374.9" r="2.4" fill="#000" opacity="0.035"/><circle cx="0.5" cy="241.2" r="1.5" fill="#000" opacity="0.035"/><circle cx="464.1" cy="19.8" r="2.2" fill="#000" opacity="0.035"/><circle cx="765.6" cy="329.2" r="2.1" fill="#000" opacity="0.035"/><circle cx="668.1" cy="506.3" r="2.3" fill="#000" opacity="0.035"/><circle cx="389.8" cy="52.6" r="2.3" fill="#000" opacity="0.035"/><circle cx="675" cy="420.6" r="1.5" fill="#000" opacity="0.035"/><circle cx="780" cy="373.7" r="1.5" fill="#000" opacity="0.035"/><circle cx="628.9" cy="134.5" r="1.4" fill="#000" opacity="0.035"/><circle cx="724.2" cy="33.1" r="2.4" fill="#000" opacity="0.035"/><circle cx="317.4" cy="343.2" r="2.1" fill="#000" opacity="0.035"/><circle cx="722.1" cy="131.9" r="1.1" fill="#000" opacity="0.035"/><circle cx="409.7" cy="134.5" r="1.7" fill="#000" opacity="0.035"/><circle cx="88.2" cy="54" r="1.9" fill="#000" opacity="0.035"/><circle cx="41.4" cy="160" r="1.6" fill="#000" opacity="0.035"/><circle cx="76" cy="483.4" r="2.4" fill="#000" opacity="0.035"/><circle cx="25.7" cy="484.1" r="1.3" fill="#000" opacity="0.035"/><circle cx="583.6" cy="36.4" r="2.2" fill="#000" opacity="0.035"/><circle cx="746" cy="155.4" r="1.3" fill="#000" opacity="0.035"/><circle cx="272.4" cy="515.9" r="2.2" fill="#000" opacity="0.035"/><circle cx="125.4" cy="541.1" r="2.2" fill="#000" opacity="0.035"/><circle cx="765.7" cy="583.6" r="1.3" fill="#000" opacity="0.035"/><circle cx="582.1" cy="14.7" r="1.3" fill="#000" opacity="0.035"/><circle cx="429.2" cy="139.9" r="1.3" fill="#000" opacity="0.035"/><circle cx="286.2" cy="275.7" r="2.5" fill="#000" opacity="0.035"/><circle cx="465" cy="333.7" r="2.2" fill="#000" opacity="0.035"/><circle cx="330" cy="310" r="210" fill="url(#r1)" filter="url(#sh)"/><rect x="90" y="292" width="60" height="36" rx="12" fill="#222"/><rect x="510" y="292" width="60" height="36" rx="12" fill="#222"/><circle cx="330" cy="310" r="170" fill="url(#r2)"/><rect x="417.2" y="243.9" width="28" height="28" rx="7" fill="#ffe08a" opacity="0.9" transform="rotate(80.3 431.2 257.9)"/><rect x="377.5" y="331.6" width="28" height="28" rx="7" fill="#ffe08a" opacity="0.9" transform="rotate(38.1 391.5 345.6)"/><rect x="300.6" y="293.1" width="28" height="28" rx="7" fill="#ffe08a" opacity="0.9" transform="rotate(17.3 314.6 307.1)"/><rect x="291.1" y="305.1" width="28" height="28" rx="7" fill="#ffe08a" opacity="0.9" transform="rotate(41 305.1 319.1)"/><rect x="326.2" y="297.6" width="28" height="28" rx="7" fill="#ffe08a" opacity="0.9" transform="rotate(63.9 340.2 311.6)"/><rect x="261.9" y="325.3" width="28" height="28" rx="7" fill="#ffe08a" opacity="0.9" transform="rotate(66.1 275.9 339.3)"/><rect x="311.6" y="301.4" width="28" height="28" rx="7" fill="#ffe08a" opacity="0.9" transform="rotate(70.5 325.6 315.4)"/><rect x="249" y="254.2" width="28" height="28" rx="7" fill="#ffe08a" opacity="0.9" transform="rotate(55.9 263 268.2)"/><rect x="358.8" y="287.9" width="28" height="28" rx="7" fill="#ffe08a" opacity="0.9" transform="rotate(68.4 372.8 301.9)"/><rect x="269.5" y="346.5" width="28" height="28" rx="7" fill="#ffe08a" opacity="0.9" transform="rotate(59.4 283.5 360.5)"/><rect x="312" y="305.5" width="28" height="28" rx="7" fill="#ffe08a" opacity="0.9" transform="rotate(42.7 326 319.5)"/><rect x="301.6" y="226.6" width="28" height="28" rx="7" fill="#ffe08a" opacity="0.9" transform="rotate(40.3 315.6 240.6)"/><rect x="302.3" y="279" width="28" height="28" rx="7" fill="#ffe08a" opacity="0.9" transform="rotate(16.1 316.3 293)"/><rect x="272.5" y="383.7" width="28" height="28" rx="7" fill="#ffe08a" opacity="0.9" transform="rotate(17.6 286.5 397.7)"/><rect x="324.9" y="303.8" width="28" height="28" rx="7" fill="#ffe08a" opacity="0.9" transform="rotate(3.5 338.9 317.8)"/><rect x="305.1" y="363.9" width="28" height="28" rx="7" fill="#ffe08a" opacity="0.9" transform="rotate(73.9 319.1 377.9)"/><rect x="294.5" y="334.8" width="28" height="28" rx="7" fill="#ffe08a" opacity="0.9" transform="rotate(26 308.5 348.8)"/><rect x="284.6" y="383.9" width="28" height="28" rx="7" fill="#ffe08a" opacity="0.9" transform="rotate(49.4 298.6 397.9)"/><circle cx="329.3" cy="323.9" r="2.7" fill="#2a1a10" opacity="0.8"/><circle cx="301.1" cy="206.2" r="1.9" fill="#2a1a10" opacity="0.8"/><circle cx="215.3" cy="276.5" r="2.4" fill="#2a1a10" opacity="0.8"/><circle cx="350.5" cy="302.6" r="3" fill="#2a1a10" opacity="0.8"/><circle cx="380.8" cy="328.6" r="1.5" fill="#2a1a10" opacity="0.8"/><circle cx="362.4" cy="226.8" r="3" fill="#2a1a10" opacity="0.8"/><circle cx="371.5" cy="193.8" r="2.3" fill="#2a1a10" opacity="0.8"/><circle cx="427.1" cy="302.5" r="2" fill="#2a1a10" opacity="0.8"/><circle cx="378.4" cy="302" r="1.8" fill="#2a1a10" opacity="0.8"/><circle cx="383.8" cy="337.8" r="1.8" fill="#2a1a10" opacity="0.8"/><circle cx="442.8" cy="259.6" r="1.8" fill="#2a1a10" opacity="0.8"/><circle cx="384.7" cy="351.6" r="1.8" fill="#2a1a10" opacity="0.8"/><circle cx="228.2" cy="281.6" r="1.9" fill="#2a1a10" opacity="0.8"/><circle cx="226.8" cy="365.4" r="2.2" fill="#2a1a10" opacity="0.8"/><circle cx="266.2" cy="406.9" r="2.7" fill="#2a1a10" opacity="0.8"/><circle cx="400.6" cy="255.1" r="2.1" fill="#2a1a10" opacity="0.8"/><circle cx="292" cy="209" r="2.5" fill="#2a1a10" opacity="0.8"/><circle cx="332.8" cy="348.3" r="2.1" fill="#2a1a10" opacity="0.8"/><circle cx="339.7" cy="238.2" r="2.3" fill="#2a1a10" opacity="0.8"/><circle cx="336.5" cy="297.5" r="2.4" fill="#2a1a10" opacity="0.8"/><circle cx="294" cy="373.2" r="2.8" fill="#2a1a10" opacity="0.8"/><circle cx="331.4" cy="433.7" r="1.6" fill="#2a1a10" opacity="0.8"/><circle cx="264.8" cy="283.4" r="1.9" fill="#2a1a10" opacity="0.8"/><circle cx="273.2" cy="287.3" r="2.2" fill="#2a1a10" opacity="0.8"/><circle cx="329.9" cy="309.5" r="2.1" fill="#2a1a10" opacity="0.8"/><circle cx="334" cy="292" r="2.8" fill="#2a1a10" opacity="0.8"/><ellipse cx="351.6" cy="381.7" rx="13" ry="5.5" fill="#2f6e2a" transform="rotate(62.3 351.6 381.7)"/><ellipse cx="285.9" cy="324.6" rx="13" ry="5.5" fill="#2f6e2a" transform="rotate(29.4 285.9 324.6)"/><ellipse cx="313.4" cy="259.8" rx="13" ry="5.5" fill="#2f6e2a" transform="rotate(248 313.4 259.8)"/><ellipse cx="270.7" cy="295.2" rx="13" ry="5.5" fill="#2f6e2a" transform="rotate(189.4 270.7 295.2)"/><ellipse cx="300.8" cy="404.5" rx="13" ry="5.5" fill="#2f6e2a" transform="rotate(31.1 300.8 404.5)"/><ellipse cx="397.7" cy="243.3" rx="13" ry="5.5" fill="#2f6e2a" transform="rotate(179.2 397.7 243.3)"/><ellipse cx="342.3" cy="237" rx="13" ry="5.5" fill="#2f6e2a" transform="rotate(217.8 342.3 237)"/><g transform="translate(430 250) rotate(-30)" filter="url(#sh)"><rect x="0" y="-5" width="120" height="10" rx="5" fill="#c9d0d6"/><ellipse cx="-22" cy="0" rx="30" ry="20" fill="url(#r3)"/></g><circle cx="640" cy="150" r="46" fill="url(#r4)" filter="url(#sh)"/><circle cx="640" cy="150" r="36.800000000000004" fill="url(#r5)"/><circle cx="637.9" cy="158" r="1.3" fill="#000" opacity="0.25"/><circle cx="632" cy="173.6" r="1.3" fill="#000" opacity="0.25"/><circle cx="631.7" cy="157.1" r="1.8" fill="#000" opacity="0.25"/><circle cx="625.7" cy="152" r="1.3" fill="#000" opacity="0.25"/><circle cx="639.6" cy="152.3" r="1.2" fill="#000" opacity="0.25"/><circle cx="638.1" cy="172.1" r="1.5" fill="#000" opacity="0.25"/><circle cx="649.3" cy="157.7" r="1.1" fill="#000" opacity="0.25"/><circle cx="629.5" cy="145.4" r="1.9" fill="#000" opacity="0.25"/><circle cx="700" cy="260" r="46" fill="url(#r6)" filter="url(#sh)"/><circle cx="700" cy="260" r="36.800000000000004" fill="url(#r7)"/><circle cx="698.7" cy="282.1" r="1.2" fill="#000" opacity="0.25"/><circle cx="716.4" cy="258.2" r="1" fill="#000" opacity="0.25"/><circle cx="702.5" cy="253.3" r="1.4" fill="#000" opacity="0.25"/><circle cx="713.2" cy="277.3" r="1.1" fill="#000" opacity="0.25"/><circle cx="699.2" cy="249.7" r="1.7" fill="#000" opacity="0.25"/><circle cx="699.5" cy="262" r="1.9" fill="#000" opacity="0.25"/><circle cx="697.5" cy="256.4" r="2" fill="#000" opacity="0.25"/><circle cx="704" cy="257.5" r="1" fill="#000" opacity="0.25"/><circle cx="640" cy="370" r="46" fill="url(#r8)" filter="url(#sh)"/><circle cx="640" cy="370" r="36.800000000000004" fill="url(#r9)"/><circle cx="637.2" cy="367.7" r="1.7" fill="#000" opacity="0.25"/><circle cx="621.9" cy="373.6" r="1.6" fill="#000" opacity="0.25"/><circle cx="642.7" cy="348.8" r="1.6" fill="#000" opacity="0.25"/><circle cx="632.9" cy="365.4" r="1.1" fill="#000" opacity="0.25"/><circle cx="658.6" cy="382.2" r="1.2" fill="#000" opacity="0.25"/><circle cx="632.6" cy="373.7" r="1.6" fill="#000" opacity="0.25"/><circle cx="618.1" cy="365.4" r="1.4" fill="#000" opacity="0.25"/><circle cx="629.1" cy="382.9" r="1.7" fill="#000" opacity="0.25"/><circle cx="700" cy="470" r="46" fill="url(#r10)" filter="url(#sh)"/><circle cx="700" cy="470" r="36.800000000000004" fill="url(#r11)"/><circle cx="707.2" cy="466.3" r="1.9" fill="#000" opacity="0.25"/><circle cx="725.4" cy="466.9" r="1.1" fill="#000" opacity="0.25"/><circle cx="685.3" cy="483.8" r="1.8" fill="#000" opacity="0.25"/><circle cx="710" cy="472.5" r="1.7" fill="#000" opacity="0.25"/><circle cx="700.7" cy="456.1" r="1.2" fill="#000" opacity="0.25"/><circle cx="698.7" cy="470.8" r="1.3" fill="#000" opacity="0.25"/><circle cx="680.8" cy="479.5" r="1.6" fill="#000" opacity="0.25"/><circle cx="694.5" cy="473.3" r="1.3" fill="#000" opacity="0.25"/><circle cx="560" cy="520" r="22" fill="url(#r12)" filter="url(#sh)"/><circle cx="560" cy="520" r="15.84" fill="#f2c3d6"/><ellipse cx="568.4" cy="520" rx="4" ry="2.2" fill="#c75b8a" transform="rotate(0 568.4 520)"/><ellipse cx="564.2" cy="527.2" rx="4" ry="2.2" fill="#c75b8a" transform="rotate(60 564.2 527.2)"/><ellipse cx="555.8" cy="527.2" rx="4" ry="2.2" fill="#c75b8a" transform="rotate(120 555.8 527.2)"/><ellipse cx="551.6" cy="520" rx="4" ry="2.2" fill="#c75b8a" transform="rotate(180 551.6 520)"/><ellipse cx="555.8" cy="512.8" rx="4" ry="2.2" fill="#c75b8a" transform="rotate(240 555.8 512.8)"/><ellipse cx="564.2" cy="512.8" rx="4" ry="2.2" fill="#c75b8a" transform="rotate(300 564.2 512.8)"/></svg>